<svg id="Layer_1" data-name="Layer 1" xmlns="http://www.w3.org/2000/svg" viewBox="0 0 512 512"><title>rss-flat</title><path d="M0,256C0,114.62,114.62,0,256,0S512,114.63,512,256,397.37,512,256,512,0,397.38,0,256Z" fill="#ffc412"/><path d="M189.86,297a25.3,25.3,0,1,1-25.3,25.31A25.32,25.32,0,0,1,189.86,297Z" fill="#fff"/><path d="M164.58,261.77a85.65,85.65,0,0,1,85.51,86h35.19c0-66.83-54.14-121.22-120.7-121.22Z" fill="#fff"/><path d="M164.63,199.38c81.4,0,147.64,66.61,147.64,148.44h35.18c0-101.26-82-183.64-182.82-183.64Z" fill="#fff"/></svg>